<?xml version="1.0" standalone="no"?>
<!DOCTYPE svg PUBLIC "-//W3C//DTD SVG 20010904//EN"
 "http://www.w3.org/TR/2001/REC-SVG-20010904/DTD/svg10.dtd">
<svg version="1.0" xmlns="http://www.w3.org/2000/svg"
 width="786.000000pt" height="786.000000pt" viewBox="0 0 786.000000 786.000000"
 preserveAspectRatio="xMidYMid meet">
<metadata>
Created by potrace 1.11, written by Peter Selinger 2001-2013
</metadata>
<g transform="translate(0.000000,786.000000) scale(0.100000,-0.100000)"
fill="#000000" stroke="none">
<path d="M0 3930 l0 -3930 3930 0 3930 0 0 3930 0 3930 -3930 0 -3930 0 0
-3930z m6179 2800 c81 -29 199 -108 251 -168 52 -60 105 -166 121 -239 26
-128 -5 -314 -84 -498 -57 -134 -413 -792 -692 -1280 -406 -709 -692 -1135
-909 -1350 -169 -167 -324 -260 -521 -311 -83 -21 -124 -26 -235 -26 -148 -1
-220 10 -338 49 -93 31 -136 52 -227 112 -204 134 -383 375 -445 601 -32 119
-45 279 -31 396 16 131 35 202 82 302 52 113 109 189 226 303 91 89 2104 1919
2201 2001 58 49 166 105 238 123 89 22 280 14 363 -15z m-3245 -3528 c164
-280 446 -507 757 -608 l82 -26 -6 -242 c-6 -281 -25 -413 -86 -597 -77 -229
-188 -408 -355 -572 -254 -250 -553 -391 -929 -437 -148 -19 -485 -8 -612 20
-209 45 -384 117 -549 227 -394 263 -652 778 -715 1427 -6 60 -11 143 -11 183
0 67 1 73 17 63 10 -5 108 -75 217 -154 205 -148 410 -266 464 -266 95 0 157
49 202 158 149 358 335 585 585 710 166 83 395 140 650 161 72 6 146 13 165
14 87 9 82 11 124 -61z"/>
</g>
</svg>
