<?xml version="1.0" standalone="no"?>
<!DOCTYPE svg PUBLIC "-//W3C//DTD SVG 20010904//EN"
 "http://www.w3.org/TR/2001/REC-SVG-20010904/DTD/svg10.dtd">
<svg version="1.0" xmlns="http://www.w3.org/2000/svg"
 width="503.000000pt" height="503.000000pt" viewBox="0 0 503.000000 503.000000"
 preserveAspectRatio="xMidYMid meet">
<metadata>
Created by potrace 1.11, written by Peter Selinger 2001-2013
</metadata>
<g transform="translate(0.000000,503.000000) scale(0.100000,-0.100000)"
fill="#000000" stroke="none">
<path d="M0 4960 l0 -70 198 -3 197 -2 -197 -3 -198 -2 0 -2440 0 -2440 2515
0 2515 0 0 2440 0 2440 -212 3 -213 2 213 3 212 2 0 70 0 70 -2515 0 -2515 0
0 -70z m3093 -1045 c134 -22 202 -43 322 -100 256 -121 429 -330 493 -595 13
-55 16 -180 19 -828 3 -486 1 -801 -6 -867 -32 -315 -199 -556 -486 -700 -113
-57 -230 -96 -345 -114 -39 -7 -267 -11 -571 -11 -548 0 -600 4 -756 56 -87
29 -215 91 -283 137 -25 17 -81 67 -125 112 -134 134 -217 312 -236 505 -6 58
-9 414 -7 881 l4 784 27 90 c67 215 211 401 394 507 138 80 234 113 428 147
28 5 273 9 545 10 387 0 514 -2 583 -14z"/>
<path d="M1947 3695 c-66 -12 -72 -15 -143 -86 l-74 -74 2 -880 3 -880 120 0
120 0 3 837 2 836 71 12 c84 14 351 9 392 -8 l27 -12 0 -495 0 -496 123 3 122
3 3 497 2 497 54 12 c64 14 367 7 408 -9 l28 -11 2 -833 3 -833 118 -3 117 -3
0 883 0 883 -77 77 c-92 90 -78 87 -368 94 -198 6 -288 -3 -323 -30 -8 -5 -29
-40 -48 -78 -19 -37 -38 -68 -42 -68 -4 0 -24 33 -44 74 -36 73 -38 75 -92 90
-67 20 -403 20 -509 1z"/>
</g>
</svg>
